<svg width="40" height="55" viewBox="0 0 40 55" fill="none" xmlns="http://www.w3.org/2000/svg">
<path d="M40 20.2104C40 14.8503 37.8929 9.70968 34.1421 5.91949C30.3914 2.1293 25.3043 0 20 0C14.6957 0 9.60859 2.1293 5.85786 5.91949C2.10714 9.70968 0 14.8503 0 20.2104C0.000154431 25.2507 1.87292 30.1073 5.24761 33.8188C5.24761 33.8188 16.2286 46.0316 19.2571 54.4526C19.311 54.6123 19.413 54.7509 19.5488 54.8491C19.6846 54.9472 19.8473 55 20.0143 55C20.1812 55 20.344 54.9472 20.4797 54.8491C20.6155 54.7509 20.7175 54.6123 20.7714 54.4526C23.8 46.0316 34.7714 33.8188 34.7714 33.8188C38.14 30.1049 40.006 25.2483 40 20.2104Z" fill="#929292"/>
<circle cx="20" cy="20" r="18" fill="#F5F5F5"/>
</svg>
