<svg width="911" height="216" viewBox="0 0 911 216" fill="none" xmlns="http://www.w3.org/2000/svg">
<path d="M119.5 29.5H84L69.5 85H10.584L0 124.5H59L42.5 187.5H80.5L96.5 124.5H149.5L167 85H106L119.5 29.5Z" fill="url(#paint0_linear_161_724)"/>
<path d="M169.625 167.5L176.75 132.75H242.625C249.625 133.333 253.833 131.167 255.25 126.25C255.417 120.833 251.375 118.375 243.125 118.875H224.625C211.792 118.625 201.958 114.5 195.125 106.5C188.375 98.5 186.292 87.458 188.875 73.375C196.292 49.0417 215 37.75 245 39.5H314.25L306.875 72.875H238.75C233.583 72.625 230.625 74.5 229.875 78.5C229.542 81.583 230.625 83.625 233.125 84.625C235.708 85.625 239.208 86 243.625 85.75L260.25 85.25C275.833 85.75 286.125 90.167 291.125 98.5C296.208 106.75 297.583 117.792 295.25 131.625C290.083 156.458 272.958 168.417 243.875 167.5H169.625ZM281.5 215.125L314.875 84.5H354.375L342.75 132.25H367.875C385.708 132.5 397.542 122.667 403.375 102.75C404.958 95.083 403.917 88.208 400.25 82.125C396.667 76.042 389.792 72.917 379.625 72.75H317.75L326.125 39.25H384C402.25 39.25 416.917 43.7083 428 52.625C439.083 61.542 444.708 73 444.875 87C443.875 111.417 435.625 130.792 420.125 145.125C404.708 159.375 385.667 166.958 363 167.875H333.375L321.625 215.125H281.5ZM501.25 166.875C486.417 165.042 474 159.25 464 149.5C454.083 139.75 450.458 124.458 453.125 103.625C461.875 67.292 488.958 45.9167 534.375 39.5C560.292 38.5 578.875 44.4167 590.125 57.25C605.958 79 604.667 104.333 586.25 133.25C566.25 159.167 537.917 170.375 501.25 166.875ZM562.25 92C561.917 84.917 559.417 79.25 554.75 75C550.083 70.75 544.208 68.458 537.125 68.125C526.375 67.542 517.125 70.667 509.375 77.5C501.625 84.333 496.792 93.125 494.875 103.875C491.625 125.208 501.417 136.333 524.25 137.25C535 136.833 544 132.5 551.25 124.25C558.5 116 562.167 105.25 562.25 92ZM614.375 74.75C620.292 54.0833 633.833 42.2917 655 39.375H694.625L686.375 75.875H664.125C661.542 75.875 659.208 76.792 657.125 78.625C655.042 80.375 653.667 82.583 653 85.25L632.625 167.5H591.625L614.375 74.75ZM688.125 123.875L718.125 0H759.25C759.25 0 759.25 0.0417 759.25 0.125C759.25 0.125 759.208 0.1667 759.125 0.25C759.125 0.3333 759.083 0.5 759 0.75C758.917 0.9167 758.833 1.1667 758.75 1.5C758.667 1.8333 758.542 2.25 758.375 2.75C758.292 3.25 758.125 3.875 757.875 4.625C757.708 5.2917 757.5 6.0833 757.25 7C757.083 7.9167 756.833 8.9583 756.5 10.125C756.25 11.2083 755.917 12.5 755.5 14C755.167 15.4167 754.75 17 754.25 18.75C753.833 20.5 753.375 22.4167 752.875 24.5C752.375 26.5833 751.792 28.875 751.125 31.375C750.542 33.7917 749.875 36.4167 749.125 39.25H778.625L770.5 76.375H740.625C740.625 76.375 740.625 76.417 740.625 76.5C740.625 76.5 740.583 76.542 740.5 76.625C740.5 76.708 740.458 76.875 740.375 77.125C740.375 77.375 740.333 77.708 740.25 78.125C740.167 78.458 740.042 78.917 739.875 79.5C739.792 80.083 739.667 80.792 739.5 81.625C739.333 82.375 739.083 83.292 738.75 84.375C738.5 85.458 738.208 86.708 737.875 88.125C737.542 89.458 737.167 91 736.75 92.75C736.333 94.5 735.875 96.458 735.375 98.625C734.875 100.708 734.292 103.042 733.625 105.625C733.042 108.208 732.375 111 731.625 114C730.875 117 730.042 120.292 729.125 123.875C728.875 126.042 729.375 127.958 730.625 129.625C731.875 131.292 733.667 132.125 736 132.125H757.375L749.125 167.5H721C709.75 167.5 700.833 163.125 694.25 154.375C687.75 145.625 685.708 135.458 688.125 123.875ZM766.125 167.5L773.25 132.75H839.125C846.125 133.333 850.333 131.167 851.75 126.25C851.917 120.833 847.875 118.375 839.625 118.875H821.125C808.292 118.625 798.458 114.5 791.625 106.5C784.875 98.5 782.792 87.458 785.375 73.375C792.792 49.0417 811.5 37.75 841.5 39.5H910.75L903.375 72.875H835.25C830.083 72.625 827.125 74.5 826.375 78.5C826.042 81.583 827.125 83.625 829.625 84.625C832.208 85.625 835.708 86 840.125 85.75L856.75 85.25C872.333 85.75 882.625 90.167 887.625 98.5C892.708 106.75 894.083 117.792 891.75 131.625C886.583 156.458 869.458 168.417 840.375 167.5H766.125Z" fill="black"/>
<defs>
<linearGradient id="paint0_linear_161_724" x1="212.69" y1="21.104" x2="282.616" y2="326.215" gradientUnits="userSpaceOnUse">
<stop stop-color="#CCFF00"/>
<stop offset="0.475962" stop-color="#FFFF00"/>
</linearGradient>
</defs>
</svg>
