<svg width="85" height="85" viewBox="0 0 85 85" fill="none" xmlns="http://www.w3.org/2000/svg">
<path d="M42.1138 0.00903458C42.0279 0.0246606 41.9419 0.0480966 41.8638 0.0715346C40.9341 0.282473 40.2779 1.11841 40.3013 2.07153V14.0715C40.2935 14.7903 40.6685 15.4622 41.2935 15.8293C41.9185 16.1887 42.6841 16.1887 43.3091 15.8293C43.9341 15.4622 44.3091 14.7903 44.3013 14.0715V2.07153C44.3248 1.49341 44.0904 0.938722 43.6763 0.548096C43.2544 0.14966 42.6841 -0.0456534 42.1138 0.00903458ZM13.6138 11.759C12.8638 11.8918 12.2623 12.4387 12.0513 13.1653C11.8404 13.8997 12.0591 14.6809 12.6138 15.1965L21.1138 23.6965C21.5982 24.2903 22.3716 24.5637 23.1216 24.3918C23.8638 24.22 24.4498 23.634 24.6216 22.8918C24.7935 22.1418 24.5201 21.3684 23.9263 20.884L15.4263 12.384C15.0123 11.9387 14.4107 11.7122 13.8013 11.759C13.7388 11.759 13.6763 11.759 13.6138 11.759ZM70.3638 11.759C69.9107 11.8215 69.4888 12.0481 69.1763 12.384L60.6763 20.884C60.0826 21.3684 59.8091 22.1418 59.981 22.8918C60.1529 23.634 60.7388 24.22 61.481 24.3918C62.231 24.5637 63.0044 24.2903 63.4888 23.6965L71.9888 15.1965C72.6138 14.6028 72.7935 13.6731 72.4263 12.8918C72.0513 12.1028 71.2232 11.6497 70.3638 11.759ZM42.3013 22.0715C31.2701 22.0715 22.3013 31.0403 22.3013 42.0715C22.3013 53.1028 31.2701 62.0715 42.3013 62.0715C53.3326 62.0715 62.3013 53.1028 62.3013 42.0715C62.3013 31.0403 53.3326 22.0715 42.3013 22.0715ZM1.73882 40.0715C0.637256 40.2278 -0.136182 41.2512 0.0200677 42.3528C0.176318 43.4543 1.19976 44.2278 2.30132 44.0715H14.3013C15.0201 44.0793 15.6919 43.7043 16.0591 43.0793C16.4185 42.4543 16.4185 41.6887 16.0591 41.0637C15.6919 40.4387 15.0201 40.0637 14.3013 40.0715H2.30132C2.23882 40.0715 2.17632 40.0715 2.11382 40.0715C2.05132 40.0715 1.98882 40.0715 1.92632 40.0715C1.86382 40.0715 1.80132 40.0715 1.73882 40.0715ZM69.7388 40.0715C68.6373 40.2278 67.8638 41.2512 68.0201 42.3528C68.1763 43.4543 69.1998 44.2278 70.3013 44.0715H82.3013C83.0201 44.0793 83.6919 43.7043 84.0591 43.0793C84.4185 42.4543 84.4185 41.6887 84.0591 41.0637C83.6919 40.4387 83.0201 40.0637 82.3013 40.0715H70.3013C70.2388 40.0715 70.1763 40.0715 70.1138 40.0715C70.0513 40.0715 69.9888 40.0715 69.9263 40.0715C69.8638 40.0715 69.8013 40.0715 69.7388 40.0715ZM22.3013 59.8215C21.8482 59.884 21.4263 60.1106 21.1138 60.4465L12.6138 68.9465C12.0201 69.4309 11.7466 70.2043 11.9185 70.9543C12.0904 71.6965 12.6763 72.2825 13.4185 72.4543C14.1685 72.6262 14.9419 72.3528 15.4263 71.759L23.9263 63.259C24.5201 62.6887 24.6998 61.8059 24.3794 61.0481C24.0669 60.2903 23.3091 59.8059 22.4888 59.8215C22.4263 59.8215 22.3638 59.8215 22.3013 59.8215ZM61.6763 59.8215C60.9263 59.9543 60.3248 60.5012 60.1138 61.2278C59.9029 61.9622 60.1216 62.7434 60.6763 63.259L69.1763 71.759C69.6607 72.3528 70.4341 72.6262 71.1841 72.4543C71.9263 72.2825 72.5123 71.6965 72.6841 70.9543C72.856 70.2043 72.5826 69.4309 71.9888 68.9465L63.4888 60.4465C63.1138 60.0481 62.5982 59.8293 62.0513 59.8215C61.9888 59.8215 61.9263 59.8215 61.8638 59.8215C61.8013 59.8215 61.7388 59.8215 61.6763 59.8215ZM42.1138 68.009C42.0279 68.0247 41.9419 68.0481 41.8638 68.0715C40.9341 68.2825 40.2779 69.1184 40.3013 70.0715V82.0715C40.2935 82.7903 40.6685 83.4622 41.2935 83.8293C41.9185 84.1887 42.6841 84.1887 43.3091 83.8293C43.9341 83.4622 44.3091 82.7903 44.3013 82.0715V70.0715C44.3248 69.4934 44.0904 68.9387 43.6763 68.5481C43.2544 68.1497 42.6841 67.9543 42.1138 68.009Z" fill="black"/>
</svg>
